<mxfile host="Electron" agent="Mozilla/5.0 (X11; Linux x86_64) AppleWebKit/537.36 (KHTML, like Gecko) draw.io/24.7.8 Chrome/128.0.6613.36 Electron/32.0.1 Safari/537.36" version="24.7.8">
  <diagram name="Page-1" id="c_e8w8dXW3axWj7VeFa3">
    <mxGraphModel dx="2209" dy="830" grid="1" gridSize="10" guides="1" tooltips="1" connect="1" arrows="1" fold="1" page="1" pageScale="1" pageWidth="827" pageHeight="583" math="0" shadow="0">
      <root>
        <mxCell id="0" />
        <mxCell id="1" parent="0" />
        <mxCell id="TqWSWn-Bph2uf5ZmRs98-32" style="edgeStyle=orthogonalEdgeStyle;rounded=0;orthogonalLoop=1;jettySize=auto;html=1;entryX=0.5;entryY=1;entryDx=0;entryDy=0;" edge="1" parent="1" source="5ACSHXv0rzr8X3KAMCg7-2" target="TqWSWn-Bph2uf5ZmRs98-27">
          <mxGeometry relative="1" as="geometry">
            <Array as="points">
              <mxPoint x="544" y="300" />
              <mxPoint x="544" y="342" />
              <mxPoint x="680" y="342" />
            </Array>
          </mxGeometry>
        </mxCell>
        <mxCell id="TqWSWn-Bph2uf5ZmRs98-33" value="Model &lt;br&gt;weights" style="edgeLabel;html=1;align=center;verticalAlign=middle;resizable=0;points=[];" vertex="1" connectable="0" parent="TqWSWn-Bph2uf5ZmRs98-32">
          <mxGeometry x="0.315" y="-1" relative="1" as="geometry">
            <mxPoint x="6" as="offset" />
          </mxGeometry>
        </mxCell>
        <mxCell id="TqWSWn-Bph2uf5ZmRs98-37" style="rounded=0;orthogonalLoop=1;jettySize=auto;html=1;entryX=0;entryY=0;entryDx=0;entryDy=0;" edge="1" parent="1" source="5ACSHXv0rzr8X3KAMCg7-2" target="TqWSWn-Bph2uf5ZmRs98-36">
          <mxGeometry relative="1" as="geometry" />
        </mxCell>
        <mxCell id="TqWSWn-Bph2uf5ZmRs98-39" value="&lt;span style=&quot;color: rgba(0, 0, 0, 0); font-family: monospace; font-size: 0px; text-align: start; background-color: rgb(251, 251, 251);&quot;&gt;%3CmxGraphModel%3E%3Croot%3E%3CmxCell%20id%3D%220%22%2F%3E%3CmxCell%20id%3D%221%22%20parent%3D%220%22%2F%3E%3CmxCell%20id%3D%222%22%20value%3D%22Evaluation%26lt%3Bbr%26gt%3Bresults%22%20style%3D%22edgeLabel%3Bhtml%3D1%3Balign%3Dcenter%3BverticalAlign%3Dmiddle%3Bresizable%3D0%3Bpoints%3D%5B%5D%3B%22%20vertex%3D%221%22%20connectable%3D%220%22%20parent%3D%221%22%3E%3CmxGeometry%20x%3D%22510%22%20y%3D%22369.9985714285714%22%20as%3D%22geometry%22%2F%3E%3C%2FmxCell%3E%3C%2Froot%3E%3C%2FmxGraphModel%3E&lt;/span&gt;" style="edgeLabel;html=1;align=center;verticalAlign=middle;resizable=0;points=[];" vertex="1" connectable="0" parent="TqWSWn-Bph2uf5ZmRs98-37">
          <mxGeometry x="-0.0157" relative="1" as="geometry">
            <mxPoint as="offset" />
          </mxGeometry>
        </mxCell>
        <mxCell id="TqWSWn-Bph2uf5ZmRs98-40" value="Evaluation&lt;br&gt;results" style="edgeLabel;html=1;align=center;verticalAlign=middle;resizable=0;points=[];" vertex="1" connectable="0" parent="TqWSWn-Bph2uf5ZmRs98-37">
          <mxGeometry x="-0.0216" y="1" relative="1" as="geometry">
            <mxPoint as="offset" />
          </mxGeometry>
        </mxCell>
        <mxCell id="5ACSHXv0rzr8X3KAMCg7-2" value="" style="shape=image;verticalLabelPosition=bottom;labelBackgroundColor=default;verticalAlign=top;aspect=fixed;imageAspect=0;image=data:image/svg+xml,PHN2ZyB4bWxucz0iaHR0cDovL3d3dy53My5vcmcvMjAwMC9zdmciIGZpbGw9Im5vbmUiIHZpZXdCb3g9IjAgMCAxMDkgNDAiIGhlaWdodD0iNDAiIHdpZHRoPSIxMDkiPiYjeGE7PHBhdGggZmlsbD0iIzMzMzMzMyIgZD0iTTAgMzEuMDMxNlYxNS41MDI0SDMuNTQyNThWMTcuNDY5OUM0LjQzNjM2IDE1Ljg3NTYgNi4zODI3OCAxNS4wNDUgOC4xMzU4OSAxNS4wNDVDMTAuMTc4IDE1LjA0NSAxMS45NjM2IDE1Ljk3MTMgMTIuNzk0MyAxNy43ODk1QzE0LjAwOTYgMTUuNzQ3NCAxNS44Mjc4IDE1LjA0NSAxNy44MzczIDE1LjA0NUMyMC42NDY5IDE1LjA0NSAyMy4zMjYzIDE2LjgzMjUgMjMuMzI2MyAyMC45NDkzVjMxLjAzMTZIMTkuNzUzMVYyMS41NTQxQzE5Ljc1MzEgMTkuNzM1OSAxOC44MjY4IDE4LjM2MzYgMTYuNzUyMiAxOC4zNjM2QzE0LjgwNTcgMTguMzYzNiAxMy41MjkyIDE5Ljg5NDcgMTMuNTI5MiAyMS44MDg2VjMxLjAyOTdIOS44OTI4MlYyMS41NTQxQzkuODkyODIgMTkuNzY4NCA4Ljk5NTIyIDE4LjM3MzIgNi44ODk5NSAxOC4zNzMyQzQuOTEyOTIgMTguMzczMiAzLjY2Njk5IDE5Ljg0MTIgMy42NjY5OSAyMS44MTgyVjMxLjAzOTJaIi8+JiN4YTs8cGF0aCBmaWxsPSIjMzMzMzMzIiBkPSJNMjcuODU0NiAzMS4wMzE2VjcuOTI5MTdIMzEuNTU3OVYzMS4wMzE2WiIvPiYjeGE7PHBhdGggZmlsbD0iIzAxOTRFMiIgZD0iTTMwLjA3MDggMzkuNDg3MUMzMC45MDMzIDM5LjcxODcgMzEuNjUxNyAzOS44Njk5IDMzLjI0MDIgMzkuODY5OUMzNi4xOTMzIDM5Ljg2OTkgMzkuNjc2NSAzOC4yMDQ4IDQwLjU5MzMgMzMuNTMxMUw0NC4zNzg5IDE0Ljc5MjNINTAuMDA3Nkw1MC42OTQ3IDExLjY3NDZINDUuMDA4Nkw0NS43NzQxIDcuOTUwMjNDNDYuMzU5OCA1LjA1ODM3IDQ3Ljk1OTggMy41OTIzNCA1MC41MjgyIDMuNTkyMzRDNTEuMTk2MiAzLjU5MjM0IDUxLjAwODYgMy42NDk3NSA1MS42MDM4IDMuNzYyNjdMNTIuNDI2OCAwLjU3MDMyN0M1MS42MzQ0IDAuMzMzMDA2IDUwLjkyNDQgMC4xOTEzNzkgNDkuMzc4IDAuMTkxMzc5QzQ3Ljc0NTQgMC4xNjY4MzEgNDYuMTUxNCAwLjY4ODkzNCA0NC44NDk3IDEuNjc0NjNDNDMuNDA4NiAyLjc4ODUxIDQyLjQ1NzQgNC40MjQ4NyA0Mi4wMjMgNi41Mzc3OUw0MC45NTY5IDExLjY3NDZIMzUuOTIzNEwzNS41MTE5IDE0Ljc5NDNINDAuMzM0OUwzNi44NTkzIDMyLjEyMDZDMzYuNDc2NSAzNC4wODYxIDM1LjM1ODggMzYuNDM2NCAzMi4xNTEyIDM2LjQzNjRDMzEuNDIzOSAzNi40MzY0IDMxLjY4OCAzNi4zODA5IDMxLjAyOTcgMzYuMjczN1oiLz4mI3hhOzxwYXRoIGZpbGw9IiMwMTk0RTIiIGQ9Ik01My4zNDE2IDMwLjkwNTNINDkuNjQwMkw1NC43MTM5IDcuNTk2MTZINTguNDE1M1oiLz4mI3hhOzxwYXRoIGZpbGw9IiM0M0M5RUQiIGQ9Ik03MS44MDY3IDE2LjQ3NjZDNjguNTc2MiAxNC4yMTYxIDY0LjE3NzggMTQuNjYwNiA2MS40NjQ5IDE3LjUyMTZDNTguNzUxOSAyMC4zODI2IDU4LjU0MTYgMjQuNzk4NCA2MC45NzAzIDI3LjkwNDNMNjMuMzk1MiAyNi4xMjQ0QzYyLjE5MTUgMjQuNjMxMiA2MS45NDcxIDIyLjU4MTUgNjIuNzY1OCAyMC44NDcxQzYzLjU4NDUgMTkuMTEyNyA2NS4zMjI0IDE3Ljk5ODcgNjcuMjQwMiAxNy45NzlWMTkuODczN1oiLz4mI3hhOzxwYXRoIGZpbGw9IiMwMTk0RTIiIGQ9Ik02Mi42MTc5IDI5LjQ3MTdDNjUuODQ4NCAzMS43MzIyIDcwLjI0NjggMzEuMjg3NyA3Mi45NTk3IDI4LjQyNjdDNzUuNjcyNyAyNS41NjU3IDc1Ljg4MyAyMS4xNDk5IDczLjQ1NDMgMTguMDQ0TDcxLjAyOTQgMTkuODIzOUM3Mi4yMzMxIDIxLjMxNzEgNzIuNDc3NSAyMy4zNjY4IDcxLjY1ODggMjUuMTAxMkM3MC44NDAxIDI2LjgzNTYgNjkuMTAyMiAyNy45NDk2IDY3LjE4NDQgMjcuOTY5M1YyNi4wNzQ2WiIvPiYjeGE7PHBhdGggZmlsbD0iIzAxOTRFMiIgZD0iTTc4LjA5MTkgMTUuNDkyOEg4Mi4xMzU5TDgyLjk1ODggMjYuMTA1M0w4OC43MTc3IDE1LjQ5MjhMOTIuNTU2OSAxNS41NDgzTDk0LjA2NTEgMjYuMTA1M0w5OS4xMzg3IDE1LjQ5MjhMMTAyLjg0IDE1LjU0ODNMOTUuMTYxNyAzMS4wNDEySDkxLjQ2MDNMODkuNjc2NSAxOS45MzQ5TDgzLjc4MTggMzEuMDQxMkg3OS45NDI2WiIvPiYjeGE7PHBhdGggZmlsbD0iIzAxOTRFMiIgZD0iTTEwNS4wNzIgMTUuNzY4NEgxMDQuMzA2VjE1LjUwMjRIMTA2LjE1MVYxNS43NzQxSDEwNS4zODZWMTguMDE3MkgxMDUuMDcyWiIvPiYjeGE7PHBhdGggZmlsbD0iIzAxOTRFMiIgZD0iTTEwNi42MTQgMTUuNTAyNEgxMDYuOTk3TDEwNy40NzkgMTYuODQyMUMxMDcuNTQxIDE3LjAxNDMgMTA3LjU5OCAxNy4xOTA0IDEwNy42NTcgMTcuMzY2NUgxMDcuNjc1QzEwNy43MzQgMTcuMTkwNCAxMDcuNzg4IDE3LjAxNDMgMTA3Ljg0NyAxNi44NDIxTDEwOC4zMjUgMTUuNTAyNEgxMDguNzA4VjE4LjAxNzJIMTA4LjQxVjE2LjYyOTdDMTA4LjQxIDE2LjQwOTYgMTA4LjQzNCAxNi4xMDcyIDEwOC40NSAxNS44ODMySDEwOC40MzRMMTA4LjI0MyAxNi40NTc0TDEwNy43NjggMTcuNzYwOEgxMDcuNTZMMTA3LjA3OSAxNi40NTkzTDEwNi44ODggMTUuODg1MkgxMDYuODczQzEwNi44OSAxNi4xMDkxIDEwNi45MTUgMTYuNDExNSAxMDYuOTE1IDE2LjYzMTZWMTguMDE5MUgxMDYuNjI0WiIvPiYjeGE7PC9zdmc+;spacing=2;imageBorder=none;imageBackground=none;" parent="1" vertex="1">
          <mxGeometry x="359" y="272" width="109" height="40" as="geometry" />
        </mxCell>
        <mxCell id="TqWSWn-Bph2uf5ZmRs98-20" style="edgeStyle=orthogonalEdgeStyle;rounded=0;orthogonalLoop=1;jettySize=auto;html=1;" edge="1" parent="1" source="TqWSWn-Bph2uf5ZmRs98-1" target="5ACSHXv0rzr8X3KAMCg7-2">
          <mxGeometry relative="1" as="geometry" />
        </mxCell>
        <mxCell id="TqWSWn-Bph2uf5ZmRs98-21" value="Training progress" style="edgeLabel;html=1;align=center;verticalAlign=middle;resizable=0;points=[];" vertex="1" connectable="0" parent="TqWSWn-Bph2uf5ZmRs98-20">
          <mxGeometry x="0.2081" y="-1" relative="1" as="geometry">
            <mxPoint x="-20" y="-13" as="offset" />
          </mxGeometry>
        </mxCell>
        <mxCell id="TqWSWn-Bph2uf5ZmRs98-22" value="Model weights" style="edgeLabel;html=1;align=center;verticalAlign=middle;resizable=0;points=[];" vertex="1" connectable="0" parent="TqWSWn-Bph2uf5ZmRs98-20">
          <mxGeometry x="0.024" relative="1" as="geometry">
            <mxPoint x="-4" y="12" as="offset" />
          </mxGeometry>
        </mxCell>
        <mxCell id="TqWSWn-Bph2uf5ZmRs98-1" value="Training" style="rounded=0;whiteSpace=wrap;html=1;" vertex="1" parent="1">
          <mxGeometry x="90" y="262" width="120" height="60" as="geometry" />
        </mxCell>
        <mxCell id="TqWSWn-Bph2uf5ZmRs98-6" style="edgeStyle=orthogonalEdgeStyle;rounded=0;orthogonalLoop=1;jettySize=auto;html=1;" edge="1" parent="1" source="TqWSWn-Bph2uf5ZmRs98-2" target="TqWSWn-Bph2uf5ZmRs98-1">
          <mxGeometry relative="1" as="geometry" />
        </mxCell>
        <mxCell id="TqWSWn-Bph2uf5ZmRs98-2" value="DefinitionModel" style="swimlane;fontStyle=0;align=center;verticalAlign=top;childLayout=stackLayout;horizontal=1;startSize=26;horizontalStack=0;resizeParent=1;resizeLast=0;collapsible=1;marginBottom=0;rounded=0;shadow=0;strokeWidth=1;" vertex="1" parent="1">
          <mxGeometry x="70" y="380" width="160" height="60" as="geometry">
            <mxRectangle x="210" y="470" width="160" height="26" as="alternateBounds" />
          </mxGeometry>
        </mxCell>
        <mxCell id="TqWSWn-Bph2uf5ZmRs98-3" value="adapter_config = &quot;par_bn&quot;" style="text;align=left;verticalAlign=top;spacingLeft=4;spacingRight=4;overflow=hidden;rotatable=0;points=[[0,0.5],[1,0.5]];portConstraint=eastwest;" vertex="1" parent="TqWSWn-Bph2uf5ZmRs98-2">
          <mxGeometry y="26" width="160" height="26" as="geometry" />
        </mxCell>
        <mxCell id="TqWSWn-Bph2uf5ZmRs98-4" value="" style="line;html=1;strokeWidth=1;align=left;verticalAlign=middle;spacingTop=-1;spacingLeft=3;spacingRight=3;rotatable=0;labelPosition=right;points=[];portConstraint=eastwest;" vertex="1" parent="TqWSWn-Bph2uf5ZmRs98-2">
          <mxGeometry y="52" width="160" height="8" as="geometry" />
        </mxCell>
        <mxCell id="TqWSWn-Bph2uf5ZmRs98-12" style="edgeStyle=orthogonalEdgeStyle;rounded=0;orthogonalLoop=1;jettySize=auto;html=1;" edge="1" parent="1" source="TqWSWn-Bph2uf5ZmRs98-8" target="TqWSWn-Bph2uf5ZmRs98-1">
          <mxGeometry relative="1" as="geometry" />
        </mxCell>
        <mxCell id="TqWSWn-Bph2uf5ZmRs98-23" style="edgeStyle=orthogonalEdgeStyle;rounded=0;orthogonalLoop=1;jettySize=auto;html=1;" edge="1" parent="1" source="TqWSWn-Bph2uf5ZmRs98-8" target="5ACSHXv0rzr8X3KAMCg7-2">
          <mxGeometry relative="1" as="geometry" />
        </mxCell>
        <mxCell id="TqWSWn-Bph2uf5ZmRs98-24" value="Store&lt;br&gt;configuration" style="edgeLabel;html=1;align=center;verticalAlign=middle;resizable=0;points=[];" vertex="1" connectable="0" parent="TqWSWn-Bph2uf5ZmRs98-23">
          <mxGeometry x="0.4024" y="-1" relative="1" as="geometry">
            <mxPoint as="offset" />
          </mxGeometry>
        </mxCell>
        <mxCell id="TqWSWn-Bph2uf5ZmRs98-8" value="DefinitionDataset" style="swimlane;fontStyle=0;align=center;verticalAlign=top;childLayout=stackLayout;horizontal=1;startSize=26;horizontalStack=0;resizeParent=1;resizeLast=0;collapsible=1;marginBottom=0;rounded=0;shadow=0;strokeWidth=1;" vertex="1" parent="1">
          <mxGeometry x="40" y="120" width="220" height="86" as="geometry">
            <mxRectangle x="80" y="410" width="160" height="26" as="alternateBounds" />
          </mxGeometry>
        </mxCell>
        <mxCell id="TqWSWn-Bph2uf5ZmRs98-9" value="train_path = &quot;distillaton/v1/train.parquet&quot;&#xa;" style="text;align=left;verticalAlign=top;spacingLeft=4;spacingRight=4;overflow=hidden;rotatable=0;points=[[0,0.5],[1,0.5]];portConstraint=eastwest;" vertex="1" parent="TqWSWn-Bph2uf5ZmRs98-8">
          <mxGeometry y="26" width="220" height="26" as="geometry" />
        </mxCell>
        <mxCell id="TqWSWn-Bph2uf5ZmRs98-10" value="train_path = &quot;distillaton/v1/train.parquet&quot;&#xa;" style="text;align=left;verticalAlign=top;spacingLeft=4;spacingRight=4;overflow=hidden;rotatable=0;points=[[0,0.5],[1,0.5]];portConstraint=eastwest;" vertex="1" parent="TqWSWn-Bph2uf5ZmRs98-8">
          <mxGeometry y="52" width="220" height="26" as="geometry" />
        </mxCell>
        <mxCell id="TqWSWn-Bph2uf5ZmRs98-11" value="" style="line;html=1;strokeWidth=1;align=left;verticalAlign=middle;spacingTop=-1;spacingLeft=3;spacingRight=3;rotatable=0;labelPosition=right;points=[];portConstraint=eastwest;" vertex="1" parent="TqWSWn-Bph2uf5ZmRs98-8">
          <mxGeometry y="78" width="220" height="8" as="geometry" />
        </mxCell>
        <mxCell id="TqWSWn-Bph2uf5ZmRs98-14" value="" style="edgeStyle=orthogonalEdgeStyle;rounded=0;orthogonalLoop=1;jettySize=auto;html=1;" edge="1" parent="1" source="TqWSWn-Bph2uf5ZmRs98-13" target="TqWSWn-Bph2uf5ZmRs98-1">
          <mxGeometry relative="1" as="geometry" />
        </mxCell>
        <mxCell id="TqWSWn-Bph2uf5ZmRs98-13" value="Seq2Seq&lt;br&gt;TrainingArguments" style="rounded=0;whiteSpace=wrap;html=1;" vertex="1" parent="1">
          <mxGeometry x="-90" y="272" width="120" height="40" as="geometry" />
        </mxCell>
        <mxCell id="TqWSWn-Bph2uf5ZmRs98-25" style="edgeStyle=orthogonalEdgeStyle;rounded=0;orthogonalLoop=1;jettySize=auto;html=1;" edge="1" parent="1" source="TqWSWn-Bph2uf5ZmRs98-3" target="5ACSHXv0rzr8X3KAMCg7-2">
          <mxGeometry relative="1" as="geometry" />
        </mxCell>
        <mxCell id="TqWSWn-Bph2uf5ZmRs98-26" value="Store&lt;br&gt;configuration" style="edgeLabel;html=1;align=center;verticalAlign=middle;resizable=0;points=[];" vertex="1" connectable="0" parent="TqWSWn-Bph2uf5ZmRs98-25">
          <mxGeometry x="0.6312" y="-1" relative="1" as="geometry">
            <mxPoint as="offset" />
          </mxGeometry>
        </mxCell>
        <mxCell id="TqWSWn-Bph2uf5ZmRs98-34" style="edgeStyle=orthogonalEdgeStyle;rounded=0;orthogonalLoop=1;jettySize=auto;html=1;" edge="1" parent="1" source="TqWSWn-Bph2uf5ZmRs98-27" target="5ACSHXv0rzr8X3KAMCg7-2">
          <mxGeometry relative="1" as="geometry">
            <Array as="points">
              <mxPoint x="610" y="290" />
              <mxPoint x="610" y="290" />
            </Array>
          </mxGeometry>
        </mxCell>
        <mxCell id="TqWSWn-Bph2uf5ZmRs98-35" value="Evaluation&lt;br&gt;results" style="edgeLabel;html=1;align=center;verticalAlign=middle;resizable=0;points=[];" vertex="1" connectable="0" parent="TqWSWn-Bph2uf5ZmRs98-34">
          <mxGeometry x="-0.4211" relative="1" as="geometry">
            <mxPoint x="4" as="offset" />
          </mxGeometry>
        </mxCell>
        <mxCell id="TqWSWn-Bph2uf5ZmRs98-27" value="Evaluation" style="rounded=0;whiteSpace=wrap;html=1;" vertex="1" parent="1">
          <mxGeometry x="620" y="262" width="120" height="60" as="geometry" />
        </mxCell>
        <mxCell id="TqWSWn-Bph2uf5ZmRs98-31" style="edgeStyle=orthogonalEdgeStyle;rounded=0;orthogonalLoop=1;jettySize=auto;html=1;" edge="1" parent="1" source="TqWSWn-Bph2uf5ZmRs98-28" target="TqWSWn-Bph2uf5ZmRs98-27">
          <mxGeometry relative="1" as="geometry" />
        </mxCell>
        <mxCell id="TqWSWn-Bph2uf5ZmRs98-28" value="DefinitionTestSet" style="swimlane;fontStyle=0;align=center;verticalAlign=top;childLayout=stackLayout;horizontal=1;startSize=26;horizontalStack=0;resizeParent=1;resizeLast=0;collapsible=1;marginBottom=0;rounded=0;shadow=0;strokeWidth=1;" vertex="1" parent="1">
          <mxGeometry x="570" y="160" width="220" height="60" as="geometry">
            <mxRectangle x="591" y="352" width="160" height="26" as="alternateBounds" />
          </mxGeometry>
        </mxCell>
        <mxCell id="TqWSWn-Bph2uf5ZmRs98-29" value="test_path = &quot;dataset/v5/test.parquet&quot;" style="text;align=left;verticalAlign=top;spacingLeft=4;spacingRight=4;overflow=hidden;rotatable=0;points=[[0,0.5],[1,0.5]];portConstraint=eastwest;" vertex="1" parent="TqWSWn-Bph2uf5ZmRs98-28">
          <mxGeometry y="26" width="220" height="26" as="geometry" />
        </mxCell>
        <mxCell id="TqWSWn-Bph2uf5ZmRs98-30" value="" style="line;html=1;strokeWidth=1;align=left;verticalAlign=middle;spacingTop=-1;spacingLeft=3;spacingRight=3;rotatable=0;labelPosition=right;points=[];portConstraint=eastwest;" vertex="1" parent="TqWSWn-Bph2uf5ZmRs98-28">
          <mxGeometry y="52" width="220" height="8" as="geometry" />
        </mxCell>
        <mxCell id="TqWSWn-Bph2uf5ZmRs98-36" value="Analysis" style="rounded=0;whiteSpace=wrap;html=1;" vertex="1" parent="1">
          <mxGeometry x="620" y="450" width="120" height="60" as="geometry" />
        </mxCell>
      </root>
    </mxGraphModel>
  </diagram>
</mxfile>
